<svg width="24" height="25" viewBox="0 0 24 25" fill="none" xmlns="http://www.w3.org/2000/svg">
<path fill-rule="evenodd" clip-rule="evenodd" d="M14.3537 2.74524C18.0183 2.42957 19.7087 3.66773 20.5392 4.79754C20.9836 5.40214 21.2326 6.0455 21.3662 6.5691C21.4637 6.95121 21.4879 7.21826 21.4964 7.32418V7.49986C21.4964 8.16293 22.0142 8.71063 22.6762 8.74788C23.3382 8.78513 23.9141 8.29897 23.9885 7.64007C23.9997 7.54139 24.0026 7.41514 23.9964 7.26774V1.99986C23.9964 1.3095 23.4368 0.749857 22.7464 0.749857C22.0561 0.749857 21.4964 1.3095 21.4964 1.99986V2.16795C19.9675 0.837335 17.6221 -0.045558 14.1391 0.254469C13.4513 0.313717 12.9418 0.919327 13.001 1.60714C13.0603 2.29494 13.6659 2.80449 14.3537 2.74524ZM9.64631 21.7548C5.98172 22.0704 4.29127 20.8323 3.46079 19.7025C3.01637 19.0979 2.76738 18.4545 2.63379 17.9309C2.53631 17.5488 2.51211 17.2817 2.50359 17.1758V17.0001C2.50359 16.3371 1.98584 15.7894 1.32381 15.7521C0.661778 15.7149 0.0858561 16.201 0.0114762 16.8599C0.000336351 16.9586 -0.00258094 17.0849 0.00358743 17.2323V22.5001C0.00358743 23.1905 0.563231 23.7501 1.25359 23.7501C1.94394 23.7501 2.50359 23.1905 2.50359 22.5001V22.332C4.03251 23.6627 6.37788 24.5456 9.86087 24.2455C10.5487 24.1863 11.0582 23.5807 10.999 22.8929C10.9397 22.2051 10.3341 21.6955 9.64631 21.7548ZM7 0.75C7.69035 0.75 8.25 1.30964 8.25 2V5.75H15C16.7949 5.75 18.25 7.20507 18.25 9V15.75H22C22.6904 15.75 23.25 16.3096 23.25 17C23.25 17.6904 22.6904 18.25 22 18.25H18.25V22C18.25 22.6904 17.6904 23.25 17 23.25C16.3096 23.25 15.75 22.6904 15.75 22V18.25H9C7.20507 18.25 5.75 16.7949 5.75 15V8.25H2C1.30964 8.25 0.749998 7.69036 0.749998 7C0.749998 6.30964 1.30964 5.75 2 5.75H5.75V2C5.75 1.30964 6.30964 0.75 7 0.75ZM8.25 8.25V15C8.25 15.4142 8.58578 15.75 9 15.75H15.75V9C15.75 8.58579 15.4142 8.25 15 8.25H8.25Z" fill="black"/>
</svg>
